
<svg width="66px" height="59px" viewBox="0 0 66 59" version="1.1" xmlns="http://www.w3.org/2000/svg" xmlns:xlink="http://www.w3.org/1999/xlink">
    <g id="页面-2" stroke="none" stroke-width="1" fill="none" fill-rule="evenodd">
        <g id="小电视-copy" fill-rule="nonzero">
            <path d="M13.75,5 L52.25,5 C61.4166667,5 66,9.5815516 66,18.7446548 L66,45.2553451 C66,54.4184484 61.4166667,59 52.25,59 L13.75,59 C4.58333334,59 0,54.4184484 0,45.2553451 L0,18.7446548 C0,9.58155155 4.58333334,5 13.75,5 Z" id="路径" fill="#FFFFFF"></path>
            <path d="M14.9166667,7 L51.0833333,7 C59.6944444,7 64,11.2892157 64,19.867647 L64,44.1323529 C64,52.7107843 59.6944444,57 51.0833333,57 L14.9166667,57 C6.30555556,57 2,52.7107843 2,44.1323529 L2,19.867647 C2,11.2892156 6.30555556,7 14.9166667,7 Z" id="路径" fill="#3590CB"></path>
            <path d="M18.9090909,12 L47.0909091,12 C54.3636364,12 58,15.627907 58,22.8837209 L58,40.1162791 C58,47.3720931 54.3636364,51 47.0909091,51 L18.9090909,51 C11.6363636,51 8,47.372093 8,40.1162791 L8,22.8837209 C8,15.6279069 11.6363636,12 18.9090909,12 Z" id="路径" fill="#FFFFFF"></path>
            <path d="M20.5,24 L20.5,24 C22.8333333,24 24,25.125 24,27.375 L24,35.625 C24,37.875 22.8333333,39 20.5,39 L20.5,39 C18.1666667,39 17,37.875 17,35.625 L17,27.375 C17,25.125 18.1666667,24 20.5,24 L20.5,24 Z" id="路径" fill="#333333"></path>
            <path d="M45.5,24 L45.5,24 C47.8333333,24 49,25.125 49,27.375 L49,35.625 C49,37.875 47.8333333,39 45.5,39 L45.5,39 C43.1666667,39 42,37.875 42,35.625 L42,27.375 C42,25.125 43.1666667,24 45.5,24 L45.5,24 Z" id="路径" fill="#333333"></path>
            <path d="M15.8218228,0.619344564 L15.8218228,0.619344564 C17.7375912,-0.508709308 19.2485101,-0.095812941 20.3545795,1.85803367 L25.3927257,10.7578048 C26.4987952,12.7116514 26.0939457,14.2526016 24.1781772,15.3806554 L24.1781772,15.3806554 C22.2624088,16.5087093 20.7514899,16.0958129 19.6454205,14.1419663 L14.6072743,5.2421952 C13.5012048,3.28834865 13.9060543,1.74739844 15.8218228,0.619344564 Z" id="路径" fill="#333333"></path>
            <path d="M50.1781772,0.619344561 L50.1781772,0.619344561 C48.2624088,-0.508709306 46.7514899,-0.0958129406 45.6454205,1.85803366 L40.6072743,10.7578048 C39.5012048,12.7116514 39.9060543,14.2526016 41.8218228,15.3806554 L41.8218228,15.3806554 C43.7375912,16.5087093 45.2485101,16.0958129 46.3545795,14.1419663 L51.3927257,5.24219518 C52.4987952,3.28834863 52.0939457,1.74739843 50.1781772,0.619344561 Z" id="路径" fill="#333333"></path>
        </g>
    </g>
</svg>